<svg class="svg-icon" style="width: 1em; height: 1em;vertical-align: middle;fill: currentColor;overflow: hidden;" viewBox="0 0 1024 1024" version="1.1" xmlns="http://www.w3.org/2000/svg"><path d="M224 992h576l64-256H160z m677.44-480v-32c0-80.96-38.4-234.56-176.64-288a111.68 111.68 0 0 0-89.6-103.36l-192-38.4a112 112 0 0 0-43.84 219.52l192 38.4A110.4 110.4 0 0 0 679.04 288c112.96 37.76 115.84 184.96 115.84 192v32H112a80 80 0 1 0 0 160h800a80 80 0 0 0 80-80 80.96 80.96 0 0 0-90.56-80z" fill="#231F20" /></svg>